<?xml version="1.0" encoding="UTF-8"?>
<svg width="234px" height="33px" viewBox="0 0 234 33" version="1.1" xmlns="http://www.w3.org/2000/svg" xmlns:xlink="http://www.w3.org/1999/xlink">
    <!-- Generator: Sketch 47.1 (45422) - http://www.bohemiancoding.com/sketch -->
    <title>logo_white_blue</title>
    <desc>Created with Sketch.</desc>
    <defs></defs>
    <g id="Brand" stroke="none" stroke-width="1" fill="none" fill-rule="evenodd">
        <g id="Artboard" transform="translate(-274.000000, -73.000000)">
            <g id="logo_white_blue" transform="translate(274.000000, 73.000000)">
                <path d="M0.866680597,32.3076923 L0.866680597,0.346765835 L9.39455696,0.346765835 L17.9224333,22.5901442 L26.3612457,0.346765835 L34.7555261,0.346765835 L34.7555261,32.3076923 L27.5413435,32.3076923 L27.5413435,12.4937009 L20.6611508,32.3076923 L15.1837159,32.3076923 L8.08086321,12.4937009 L8.08086321,32.3076923 L0.866680597,32.3076923 Z M38.4257479,21.2974429 C38.4257479,19.6778434 38.6743824,18.1697069 39.1716588,16.7729882 C39.6689352,15.3762694 40.4111276,14.1541588 41.3982584,13.1066197 C42.3853891,12.0590806 43.5951628,11.2307199 45.0276157,10.6215128 C46.4600686,10.0123056 48.1040248,9.70770664 49.9595337,9.70770664 C51.7259782,9.70770664 53.31427,9.98258866 54.7244568,10.532361 C56.1346436,11.0821332 57.3332844,11.8362015 58.3204151,12.7945883 C59.3075459,13.7529751 60.0682931,14.8933641 60.6026797,16.2157893 C61.1370663,17.5382145 61.4042555,18.9646293 61.4042555,20.4950765 C61.4042555,20.9259791 61.3894117,21.2974413 61.3597235,21.6094742 C61.3300354,21.9215072 61.27066,22.3821203 61.1815956,22.9913274 L45.4395366,22.9913274 C45.4395366,23.6599694 45.5248887,24.2914551 45.6955956,24.8858035 C45.8663024,25.4801519 46.1334916,26.000199 46.4971714,26.4459603 C46.8608511,26.8917216 47.3469872,27.2408961 47.9555941,27.4934942 C48.564201,27.7460923 49.3063935,27.8723894 50.1821937,27.8723894 C51.4290957,27.8723894 52.3642582,27.630939 52.9877092,27.1480309 C53.6111602,26.6651228 54.0416318,26.0744979 54.2791369,25.3761385 L61.1370636,25.3761385 C60.9589347,26.4162483 60.5841276,27.3894792 60.0126308,28.2958605 C59.4411341,29.2022419 58.7026526,29.997171 57.7971642,30.6806716 C56.8916759,31.3641723 55.8080749,31.9065071 54.5463289,32.3076923 C53.2845828,32.7088775 51.8595733,32.9094671 50.2712577,32.9094671 C48.3563725,32.9094671 46.6604628,32.6122973 45.1834776,32.0179489 C43.7064925,31.4236005 42.4670312,30.5989544 41.4650564,29.543986 C40.4630815,28.4890175 39.7060453,27.2557631 39.1939248,25.8441856 C38.6818043,24.4326081 38.4257479,22.9170423 38.4257479,21.2974429 Z M45.4395366,18.9794956 L54.5685948,18.9794956 C54.5685948,17.6422117 54.1492561,16.5835444 53.3105661,15.8034621 C52.4718761,15.0233798 51.3697203,14.6333445 50.0040657,14.6333445 C48.6977874,14.6333445 47.6104755,15.0085214 46.7420974,15.7588862 C45.8737192,16.5092511 45.4395366,17.5827768 45.4395366,18.9794956 Z M63.7830496,21.2974429 C63.7830496,19.6778434 64.0316841,18.1697069 64.5289605,16.7729882 C65.0262369,15.3762694 65.7684293,14.1541588 66.7555601,13.1066197 C67.7426908,12.0590806 68.9524645,11.2307199 70.3849174,10.6215128 C71.8173703,10.0123056 73.4613265,9.70770664 75.3168354,9.70770664 C77.0832799,9.70770664 78.6715717,9.98258866 80.0817585,10.532361 C81.4919453,11.0821332 82.6905861,11.8362015 83.6777168,12.7945883 C84.6648476,13.7529751 85.4255948,14.8933641 85.9599814,16.2157893 C86.494368,17.5382145 86.7615572,18.9646293 86.7615572,20.4950765 C86.7615572,20.9259791 86.7467134,21.2974413 86.7170252,21.6094742 C86.6873371,21.9215072 86.6279617,22.3821203 86.5388973,22.9913274 L70.7968383,22.9913274 C70.7968383,23.6599694 70.8821904,24.2914551 71.0528972,24.8858035 C71.2236041,25.4801519 71.4907933,26.000199 71.8544731,26.4459603 C72.2181528,26.8917216 72.7042889,27.2408961 73.3128958,27.4934942 C73.9215027,27.7460923 74.6636952,27.8723894 75.5394954,27.8723894 C76.7863974,27.8723894 77.7215598,27.630939 78.3450108,27.1480309 C78.9684618,26.6651228 79.3989335,26.0744979 79.6364386,25.3761385 L86.4943653,25.3761385 C86.3162364,26.4162483 85.9414292,27.3894792 85.3699325,28.2958605 C84.7984357,29.2022419 84.0599543,29.997171 83.1544659,30.6806716 C82.2489776,31.3641723 81.1653766,31.9065071 79.9036305,32.3076923 C78.6418845,32.7088775 77.216875,32.9094671 75.6285594,32.9094671 C73.7136742,32.9094671 72.0177644,32.6122973 70.5407793,32.0179489 C69.0637942,31.4236005 67.8243329,30.5989544 66.8223581,29.543986 C65.8203832,28.4890175 65.063347,27.2557631 64.5512265,25.8441856 C64.039106,24.4326081 63.7830496,22.9170423 63.7830496,21.2974429 Z M70.7968383,18.9794956 L79.9258965,18.9794956 C79.9258965,17.6422117 79.5065578,16.5835444 78.6678678,15.8034621 C77.8291777,15.0233798 76.727022,14.6333445 75.3613674,14.6333445 C74.0550891,14.6333445 72.9677772,15.0085214 72.099399,15.7588862 C71.2310209,16.5092511 70.7968383,17.5827768 70.7968383,18.9794956 Z M87.6707956,15.5025748 L87.6707956,10.3094814 L91.1220249,10.3094814 L91.1220249,3.7791108 L98.0690156,3.7791108 L98.0690156,10.3094814 L103.078865,10.3094814 L103.078865,15.5025748 L98.0690156,15.5025748 L98.0690156,23.3702226 C98.0690156,24.1874517 98.1432349,24.8375105 98.2916756,25.3204186 C98.4401163,25.8033267 98.6516411,26.1822182 98.9262564,26.4571043 C99.2008718,26.7319904 99.5348584,26.9102923 99.9282263,26.9920152 C100.321594,27.0737381 100.763199,27.114599 101.253053,27.114599 C101.549934,27.114599 101.928453,27.1034551 102.388619,27.081167 C102.848785,27.058879 103.249569,27.0180181 103.590983,26.9585833 L103.590983,32.3076923 C103.07144,32.3968446 102.422022,32.4785663 101.642708,32.5528598 C100.863394,32.6271534 99.9467865,32.6642996 98.8928575,32.6642996 C98.0764335,32.6642996 97.2154903,32.6048656 96.3100019,32.4859959 C95.4045136,32.3671263 94.5658361,32.055098 93.7939444,31.5499019 C93.0220527,31.0447057 92.3837672,30.2683497 91.8790688,29.2208106 C91.3743704,28.1732715 91.1220249,26.7357129 91.1220249,24.9080915 L91.1220249,15.5025748 L87.6707956,15.5025748 Z M106.459629,32.3076923 L106.459629,0.346765835 L125.942375,0.346765835 L125.942375,6.56510509 L113.851939,6.56510509 L113.851939,15.1905434 L125.942375,15.1905434 L125.942375,21.252867 L113.851939,21.252867 L113.851939,32.3076923 L106.459629,32.3076923 Z M130.503236,32.3076923 L130.503236,10.3094814 L137.472493,10.3094814 L137.472493,13.8755541 C137.992036,12.8354444 138.852979,11.9179328 140.055349,11.1229917 C141.257718,10.3280507 142.667884,9.93058619 144.285888,9.93058619 C145.042935,9.93058619 145.710909,10.0568833 146.289827,10.3094814 L146.289827,16.6615484 C145.799973,16.5426787 145.388056,16.4572424 145.054065,16.4052369 C144.720073,16.3532314 144.337844,16.3272291 143.907366,16.3272291 C141.933104,16.3272291 140.367078,16.8844224 139.209241,17.9988256 C138.051403,19.1132289 137.472493,21.0225446 137.472493,23.7268299 L137.472493,32.3076923 L130.503236,32.3076923 Z M146.776012,21.2974429 C146.776012,19.648126 147.03949,18.1177018 147.566455,16.7061243 C148.093419,15.2945468 148.82819,14.0798654 149.770788,13.0620438 C150.713387,12.0442221 151.815543,11.2381491 153.077289,10.6438007 C154.339035,10.0494523 155.704669,9.75228255 157.174232,9.75228255 C158.821924,9.75228255 160.250644,10.101457 161.460436,10.7998164 C162.670228,11.4981758 163.579414,12.3822558 164.188021,13.452083 L164.188021,10.3094814 L171.157277,10.3094814 L171.157277,32.3076923 L164.188021,32.3076923 L164.188021,29.2096667 C163.63879,30.220059 162.755581,31.0818513 161.538367,31.7950694 C160.321153,32.5082875 158.866456,32.8648912 157.174232,32.8648912 C155.719513,32.8648912 154.35759,32.5677214 153.088422,31.973373 C151.819254,31.3790246 150.713387,30.569237 149.770788,29.543986 C148.82819,28.5187349 148.093419,27.300339 147.566455,25.8887615 C147.03949,24.477184 146.776012,22.9467597 146.776012,21.2974429 Z M153.700737,21.2974429 C153.700737,22.0552371 153.83062,22.7795884 154.090392,23.4705184 C154.350163,24.1614485 154.706415,24.755788 155.159159,25.2535548 C155.611903,25.7513216 156.157415,26.1525007 156.79571,26.4571043 C157.434005,26.7617079 158.14651,26.9140074 158.933246,26.9140074 C159.719981,26.9140074 160.436197,26.7617079 161.081914,26.4571043 C161.727631,26.1525007 162.276854,25.7513216 162.729598,25.2535548 C163.182342,24.755788 163.538594,24.1651631 163.798366,23.4816624 C164.058137,22.7981617 164.188021,22.0700958 164.188021,21.2974429 C164.188021,20.5396486 164.058137,19.8264412 163.798366,19.1577993 C163.538594,18.4891573 163.182342,17.8948178 162.729598,17.3747629 C162.276854,16.8547081 161.731342,16.4460996 161.093047,16.1489254 C160.454752,15.8517512 159.734825,15.7031664 158.933246,15.7031664 C158.14651,15.7031664 157.434005,15.8517512 156.79571,16.1489254 C156.157415,16.4460996 155.611903,16.8547081 155.159159,17.3747629 C154.706415,17.8948178 154.350163,18.4891573 154.090392,19.1577993 C153.83062,19.8264412 153.700737,20.5396486 153.700737,21.2974429 Z M176.141193,32.3076923 L176.141193,10.3094814 L183.11045,10.3094814 L183.11045,13.4966589 C183.719056,12.307962 184.646797,11.3867358 185.893699,10.7329525 C187.140601,10.0791693 188.632408,9.75228255 190.369164,9.75228255 C191.883259,9.75228255 193.130143,9.99001835 194.109851,10.4654971 C195.08956,10.9409758 195.883706,11.5427446 196.492313,12.2708214 C197.189984,13.1177679 197.650144,14.0984281 197.872805,15.2128314 C198.095466,16.3272346 198.206795,17.6719278 198.206795,19.2469511 L198.206795,32.3076923 L191.237538,32.3076923 L191.237538,21.0299874 C191.237538,19.4846815 190.955505,18.2105662 190.39143,17.2076033 C189.827355,16.2046403 188.832818,15.7031664 187.407787,15.7031664 C185.953068,15.7031664 184.873178,16.2046403 184.168084,17.2076033 C183.462991,18.2105662 183.11045,19.558974 183.11045,21.252867 L183.11045,32.3076923 L176.141193,32.3076923 Z M202.878986,32.3076923 L202.878986,0.346765835 L209.848243,0.346765835 L209.848243,19.6258463 L216.661638,10.3094814 L224.944588,10.3094814 L216.37218,21.2974429 L224.900056,32.3076923 L216.617106,32.3076923 L209.848243,23.0804792 L209.848243,32.3076923 L202.878986,32.3076923 Z" id="MeetFrank" fill="#FFFFFF"></path>
                <ellipse id="Oval" fill="#4A67E2" cx="230.47137" cy="28.6520819" rx="3.52863018" ry="3.53211009"></ellipse>
            </g>
        </g>
    </g>
</svg>